HIERARCHY
ROOT Hips
{
	OFFSET 0.00000 0.00000 0.00000
	CHANNELS 6 Xposition Yposition Zposition Yrotation Zrotation Xrotation 
	JOINT Lumbar
	{
		OFFSET 0 0 0
		CHANNELS 3 Zrotation Xrotation Yrotation
		JOINT Neck
		{
			OFFSET 0.00 0.2701 0.00
			CHANNELS 3 Zrotation Xrotation Yrotation
			End Site
			{
				OFFSET 0.00 0.1379 0.00
			}
		}
		JOINT RightShoulder
		{
			OFFSET 0.0119 0.2289 0.1181
			CHANNELS 3 Zrotation Xrotation Yrotation
			JOINT RightElbow
			{
				OFFSET 0.00 -0.1475 0.00
				CHANNELS 2 Zrotation Yrotation
				JOINT RightWrist
				{
					OFFSET 0.00 -0.1605 0.00
					CHANNELS 2 Zrotation Xrotation
					End Site
					{
						OFFSET 0.0040 -0.1068 0.0006
					}
				}
			}
		}
		JOINT LeftShoulder
		{
			OFFSET 0.0119 0.2289 -0.1181
			CHANNELS 3 Zrotation Xrotation Yrotation
			JOINT LeftElbow
			{
				OFFSET 0.00 -0.1475 0.00
				CHANNELS 2 Zrotation Yrotation
				JOINT LeftWrist
				{
					OFFSET 0.00 -0.1605 0.00
					CHANNELS 2 Zrotation Xrotation
					End Site
					{
						OFFSET 0.0040 -0.1068 -0.0006
					}
				}
			}
		}
	}
	JOINT RightHip
	{
		OFFSET 0.0316 -0.0424 0.0458
		CHANNELS 3 Zrotation Xrotation Yrotation
		JOINT RightKnee
		{
			OFFSET 0.00 -0.2438 0.00
			CHANNELS 1 Zrotation
			JOINT RightAnkle
			{
				OFFSET 0.00 -0.2449 0.00
				CHANNELS 3 Zrotation Xrotation Yrotation
				End Site
				{
					OFFSET 0.1237 -0.0542 0.0051
				}
			}
		}
	}
	JOINT LeftHip
	{
		OFFSET 0.0316 -0.0424 -0.0458
		CHANNELS 3 Zrotation Xrotation Yrotation
		JOINT LeftKnee
		{
			OFFSET 0.00 -0.2438 0.00
			CHANNELS 1 Zrotation
			JOINT LeftAnkle
			{
				OFFSET 0.00 -0.2449 0.00
				CHANNELS 3 Zrotation Xrotation Yrotation
				End Site
				{
					OFFSET 0.1237 -0.0542 -0.0051
				}
			}
		}
	}
}
MOTION
Frames: 14
Frame Time: 0.02
0.00065 0.00018 0.00032 9.16001 -20.49272 -4.55677 46.00887 2.89297 -5.29775 -14.50481 -11.23575 -1.33872 -28.39818 -7.00864 -13.51861 41.98431 141.35859 18.08047 10.71265 -36.43335 10.98957 7.00702 35.1656 -93.41201 12.06594 -0.04246 32.17229 -0.1905 -10.38474 -20.51308 -7.50617 -2.85896 -3.64939 32.88933 9.95365 9.15726 -26.36123 -8.44939 3.5986 4.07672
0.00044 0.00015 -0.00012 9.46304 -20.63188 -4.58556 46.128 2.87084 -5.30264 -14.31828 -11.18034 -1.33943 -28.41613 -7.43026 -12.26125 42.04023 136.26244 16.99753 9.67735 -35.61124 11.0621 6.36157 35.76725 -93.29299 12.07093 -0.01662 32.29063 -0.30135 -10.71327 -20.55136 -7.50035 -2.84575 -3.64466 33.1229 9.87941 8.98581 -26.40673 -8.43363 3.59067 4.072
0.00024 0.00012 -0.00056 9.76538 -20.7706 -4.6143 46.24671 2.84877 -5.30748 -14.13218 -11.12499 -1.34014 -28.434 -7.85072 -11.00755 42.09619 131.18198 15.91798 8.64522 -34.79114 11.13448 5.71753 36.36835 -93.17405 12.07584 0.0092 32.40861 -0.41185 -11.04044 -20.58952 -7.49458 -2.83264 -3.63996 33.3558 9.80544 8.8153 -26.45211 -8.41787 3.58272 4.06727
3e-05 9e-05 -0.001 10.06753 -20.90933 -4.643 46.36547 2.82671 -5.31236 -13.9462 -11.06973 -1.34084 -28.4519 -8.27107 -9.75402 42.15198 126.10153 14.83838 7.61311 -33.97146 11.20679 5.07397 36.96837 -93.05535 12.08081 0.03496 32.52659 -0.52236 -11.36788 -20.62768 -7.48878 -2.81949 -3.63524 33.58866 9.73144 8.64446 -26.49748 -8.40215 3.5748 4.06256
-0.00017 6e-05 -0.00144 10.37024 -21.04849 -4.67175 46.48466 2.80458 -5.3173 -13.75985 -11.01446 -1.34155 -28.46989 -8.69251 -8.49694 42.20765 121.00541 13.75537 6.57784 -33.15002 11.27922 4.42922 37.56841 -92.9367 12.08589 0.06071 32.64493 -0.63322 -11.69685 -20.66597 -7.48292 -2.80622 -3.63047 33.82216 9.65714 8.47252 -26.54297 -8.38647 3.56694 4.05788
-0.00038 3e-05 -0.00187 10.67178 -21.18627 -4.70046 46.60236 2.78264 -5.32191 -13.57426 -10.95894 -1.34226 -28.48749 -9.11091 -7.25042 42.2642 115.95814 12.68314 5.55237 -32.3328 11.35151 3.7867 38.17166 -92.81715 12.09043 0.08668 32.76214 -0.74296 -12.02024 -20.70386 -7.47734 -2.79343 -3.62594 34.05377 9.58387 8.305 -26.58814 -8.37052 3.55878 4.05304
-0.00058 0 -0.00231 10.97539 -21.32668 -4.72922 46.72292 2.76036 -5.32721 -13.38736 -10.904 -1.34296 -28.50588 -9.53493 -5.98405 42.31895 110.81843 11.59047 4.50838 -31.50793 11.42397 3.14042 38.76787 -92.69951 12.09605 0.11219 32.88149 -0.85482 -12.35438 -20.7425 -7.4712 -2.7797 -3.62093 34.28893 9.50863 8.12884 -26.63388 -8.35512 3.55123 4.04852
-0.00078 -3e-05 -0.00275 11.27703 -21.46469 -4.75793 46.84088 2.73838 -5.33183 -13.20167 -10.84848 -1.34367 -28.5235 -9.95383 -4.73591 42.37529 105.76341 10.51652 3.48136 -30.69022 11.49633 2.49759 39.37046 -92.58018 12.10071 0.13811 32.99889 -0.96476 -12.6788 -20.78045 -7.46557 -2.76682 -3.61635 34.52084 9.43517 7.96054 -26.6791 -8.33923 3.54313 4.04371
-0.00099 -5e-05 -0.00319 11.57665 -21.59973 -4.78661 46.95555 2.71678 -5.33578 -13.01733 -10.79238 -1.34439 -28.54036 -10.36644 -3.5098 42.4339 100.81199 9.46552 2.47506 -29.88042 11.56838 1.85866 39.98176 -92.45842 12.10401 0.16461 33.11387 -1.07224 -12.99067 -20.81757 -7.46061 -2.75506 -3.61233 34.74881 9.364 7.80227 -26.72369 -8.32268 3.53429 4.03852
-0.00118 -8e-05 -0.00363 11.88908 -21.75172 -4.81555 47.08883 2.69305 -5.34406 -12.82484 -10.74 -1.34506 -28.56213 -10.81516 -2.15615 42.48046 95.26459 8.28265 1.34943 -29.02252 11.64167 1.1963 40.54571 -92.34953 12.1146 0.18798 33.24266 -1.19353 -13.37273 -20.85948 -7.45194 -2.73709 -3.60522 34.99953 9.28002 7.58755 -26.77195 -8.30971 3.52949 4.03544
-0.00141 -0.00011 -0.00407 12.17369 -21.86802 -4.84389 47.18302 2.67379 -5.3429 -12.64979 -10.67957 -1.34583 -28.5732 -11.18768 -1.0722 42.55176 90.97493 7.37794 0.4757 -28.26788 11.71266 0.58411 41.20761 -92.21424 12.11014 0.21781 33.34237 -1.28592 -13.608 -20.89129 -7.451 -2.73205 -3.60454 35.20215 9.22284 7.49108 -26.81243 -8.28932 3.5163 4.02796
-0.00177 -0.00014 -0.00449 12.38794 -21.88485 -4.87082 47.16738 2.66691 -5.3183 -12.52108 -10.59851 -1.34685 -28.55737 -11.34922 -0.73031 42.69747 90.16707 7.2445 0.29895 -27.78466 11.7747 0.10501 42.15646 -91.99972 12.06146 0.26672 33.36071 -1.29642 -13.42573 -20.8951 -7.47232 -2.76437 -3.62254 35.27203 9.24147 7.72938 -26.83159 -8.24723 3.47884 4.0077
-0.00218 -0.00018 -0.00491 12.57319 -21.86598 -4.89706 47.11281 2.66446 -5.28384 -12.41018 -10.50917 -1.34797 -28.53034 -11.43452 -0.659 42.86682 90.61682 7.38891 0.37414 -27.40747 11.83483 -0.32255 43.19947 -91.76025 11.99831 0.32179 33.34994 -1.27844 -13.09879 -20.88877 -7.50122 -2.80932 -3.64681 35.29355 9.28648 8.0844 -26.84289 -8.19793 3.43321 3.98315
-0.00255 -0.00021 -0.00533 12.76779 -21.86463 -4.92347 47.07792 2.65991 -5.25224 -12.29211 -10.42256 -1.34906 -28.50678 -11.55599 -0.46238 43.02111 90.47068 7.40089 0.33016 -26.98937 11.89767 -0.77111 44.18864 -91.53621 11.9436 0.37321 33.35376 -1.27513 -12.84764 -20.88731 -7.52596 -2.84722 -3.66753 35.3379 9.31801 8.37948 -26.85783 -8.15277 3.39212 3.96101
